# xmcd CD database file
#
# Track frame offsets:
#	150
#	50775
#	81560
#	91837
#	114935
#	131492
#	145622
#	154485
#	164295
#	174287
#	184782
#
# Disc length: 2638 seconds
#
# Revision: 0
# Processed by: cddbd v1.5PL3 Copyright (c) Steve Scherf et al.
# Submitted via: CDex 1.51
#
DISCID=8e0a4c0b
DTITLE=帝国歌劇団 - 第４回花組特別公演 アラビアのバラ [CD1]
DYEAR=2000
DGENRE=Game
TTITLE0=前説 （2003年7月30日 昼の部より）
TTITLE1=イッツ・ショウタイム
TTITLE2=心は砂漠のように（薔薇組版）
TTITLE3=劇場へ行こう！
TTITLE4=スキャンダルはダメよ
TTITLE5=スター輝く星
TTITLE6=これがレビュウ！
TTITLE7=花組を潰せ！
TTITLE8=あなたのお気に入り（カンナの妄想２）
TTITLE9=花咲く乙女
TTITLE10=ゲキテイ音頭
EXTD=YEAR: 2000
EXTT0=
EXTT1=
EXTT2=
EXTT3=
EXTT4=
EXTT5=
EXTT6=
EXTT7=
EXTT8=
EXTT9=
EXTT10=
PLAYORDER=
